HIERARCHY
ROOT hip
{
  OFFSET 0 0 0
  CHANNELS 6 Xposition Yposition Zposition Zrotation Yrotation Xrotation
  JOINT abdomen
  {
    OFFSET 0 20.6881 -0.73152
    CHANNELS 3 Zrotation Xrotation Yrotation
    JOINT chest
    {
      OFFSET 0 11.7043 -0.48768
      CHANNELS 3 Zrotation Xrotation Yrotation
      JOINT neck
      {
        OFFSET 0 22.1894 -2.19456
        CHANNELS 3 Zrotation Xrotation Yrotation
        JOINT head
        {
          OFFSET -0.24384 7.07133 1.2192
          CHANNELS 3 Zrotation Xrotation Yrotation
          JOINT leftEye
          {
            OFFSET 4.14528 8.04674 8.04672
            CHANNELS 3 Zrotation Xrotation Yrotation
            End Site
            {
              OFFSET 1 0 0
            }
          }
          JOINT rightEye
          {
            OFFSET -3.6576 8.04674 8.04672
            CHANNELS 3 Zrotation Xrotation Yrotation
            End Site
            {
              OFFSET 1 0 0
            }
          }
        }
      }
      JOINT rCollar
      {
        OFFSET -2.68224 19.2634 -4.8768
        CHANNELS 3 Zrotation Xrotation Yrotation
        JOINT rShldr
        {
          OFFSET -8.77824 -1.95073 1.46304
          CHANNELS 3 Zrotation Xrotation Yrotation
          JOINT rForeArm
          {
            OFFSET -28.1742 -1.7115 0.48768
            CHANNELS 3 Zrotation Xrotation Yrotation
            JOINT rHand
            {
              OFFSET -22.5879 0.773209 7.07136
              CHANNELS 3 Zrotation Xrotation Yrotation
              JOINT rThumb1
              {
                OFFSET -1.2192 -0.487915 3.41376
                CHANNELS 3 Zrotation Xrotation Yrotation
                JOINT rThumb2
                {
                  OFFSET -3.37035 -0.52449 3.41376
                  CHANNELS 3 Zrotation Xrotation Yrotation
                  End Site
                  {
                    OFFSET -1.78271 -1.18214 1.43049
                  }
                }
              }
              JOINT rIndex1
              {
                OFFSET -7.75947 0.938293 5.60832
                CHANNELS 3 Zrotation Xrotation Yrotation
                JOINT rIndex2
                {
                  OFFSET -2.54057 -0.884171 1.56538
                  CHANNELS 3 Zrotation Xrotation Yrotation
                  End Site
                  {
                    OFFSET -1.62519 -0.234802 1.16502
                  }
                }
              }
              JOINT rMid1
              {
                OFFSET -8.24714 1.18213 3.41376
                CHANNELS 3 Zrotation Xrotation Yrotation
                JOINT rMid2
                {
                  OFFSET -3.10165 -0.590103 1.0647
                  CHANNELS 3 Zrotation Xrotation Yrotation
                  End Site
                  {
                    OFFSET -2.48547 -0.328903 0.83742
                  }
                }
              }
              JOINT rRing1
              {
                OFFSET -8.82822 0.546677 1.51678
                CHANNELS 3 Zrotation Xrotation Yrotation
                JOINT rRing2
                {
                  OFFSET -2.60934 -0.819778 -0.0198488
                  CHANNELS 3 Zrotation Xrotation Yrotation
                  End Site
                  {
                    OFFSET -2.33842 -0.294052 0.168128
                  }
                }
              }
              JOINT rPinky1
              {
                OFFSET -8.27202 -0.0477905 -0.4584
                CHANNELS 3 Zrotation Xrotation Yrotation
                JOINT rPinky2
                {
                  OFFSET -1.82734 -0.647385 -0.700984
                  CHANNELS 3 Zrotation Xrotation Yrotation
                  End Site
                  {
                    OFFSET -1.69225 -0.51767 -0.607171
                  }
                }
              }
            }
          }
        }
      }
      JOINT lCollar
      {
        OFFSET 2.68224 19.2634 -4.8768
        CHANNELS 3 Zrotation Xrotation Yrotation
        JOINT lShldr
        {
          OFFSET 8.77824 -1.95073 1.46304
          CHANNELS 3 Zrotation Xrotation Yrotation
          JOINT lForeArm
          {
            OFFSET 28.1742 -1.7115 0.48768
            CHANNELS 3 Zrotation Xrotation Yrotation
            JOINT lHand
            {
              OFFSET 22.5879 0.773209 7.07136
              CHANNELS 3 Zrotation Xrotation Yrotation
              JOINT lThumb1
              {
                OFFSET 1.2192 -0.487915 3.41376
                CHANNELS 3 Zrotation Xrotation Yrotation
                JOINT lThumb2
                {
                  OFFSET 3.37035 -0.52449 3.41376
                  CHANNELS 3 Zrotation Xrotation Yrotation
                  End Site
                  {
                    OFFSET 1.78271 -1.18214 1.43049
                  }
                }
              }
              JOINT lIndex1
              {
                OFFSET 7.75947 0.938293 5.60832
                CHANNELS 3 Zrotation Xrotation Yrotation
                JOINT lIndex2
                {
                  OFFSET 2.54057 -0.884171 1.56538
                  CHANNELS 3 Zrotation Xrotation Yrotation
                  End Site
                  {
                    OFFSET 1.62519 -0.234802 1.16502
                  }
                }
              }
              JOINT lMid1
              {
                OFFSET 8.24714 1.18213 3.41376
                CHANNELS 3 Zrotation Xrotation Yrotation
                JOINT lMid2
                {
                  OFFSET 3.10165 -0.590103 1.0647
                  CHANNELS 3 Zrotation Xrotation Yrotation
                  End Site
                  {
                    OFFSET 2.48547 -0.328903 0.83742
                  }
                }
              }
              JOINT lRing1
              {
                OFFSET 8.82822 0.546677 1.51678
                CHANNELS 3 Zrotation Xrotation Yrotation
                JOINT lRing2
                {
                  OFFSET 2.60934 -0.819778 -0.0198488
                  CHANNELS 3 Zrotation Xrotation Yrotation
                  End Site
                  {
                    OFFSET 2.33842 -0.294052 0.168128
                  }
                }
              }
              JOINT lPinky1
              {
                OFFSET 8.27202 -0.0477905 -0.4584
                CHANNELS 3 Zrotation Xrotation Yrotation
                JOINT lPinky2
                {
                  OFFSET 1.82734 -0.647385 -0.700984
                  CHANNELS 3 Zrotation Xrotation Yrotation
                  End Site
                  {
                    OFFSET 1.69225 -0.51767 -0.607171
                  }
                }
              }
            }
          }
        }
      }
    }
  }
  JOINT rButtock
  {
    OFFSET -8.77824 4.35084 1.2192
    CHANNELS 3 Zrotation Xrotation Yrotation
    JOINT rThigh
    {
      OFFSET 0 -1.70687 -2.19456
      CHANNELS 3 Zrotation Xrotation Yrotation
      JOINT rShin
      {
        OFFSET 0 -36.8199 0.73152
        CHANNELS 3 Zrotation Xrotation Yrotation
        JOINT rFoot
        {
          OFFSET 0.73152 -45.1104 -5.12064
          CHANNELS 3 Zrotation Xrotation Yrotation
          End Site
          {
            OFFSET -1.1221 -3.69964 12.103
          }
        }
      }
    }
  }
  JOINT lButtock
  {
    OFFSET 8.77824 4.35084 1.2192
    CHANNELS 3 Zrotation Xrotation Yrotation
    JOINT lThigh
    {
      OFFSET 0 -1.70687 -2.19456
      CHANNELS 3 Zrotation Xrotation Yrotation
      JOINT lShin
      {
        OFFSET 0 -36.8199 0.73152
        CHANNELS 3 Zrotation Xrotation Yrotation
        JOINT lFoot
        {
          OFFSET -0.73152 -45.1104 -5.12064
          CHANNELS 3 Zrotation Xrotation Yrotation
          End Site
          {
            OFFSET 1.1221 -3.69964 12.103
          }
        }
      }
    }
  }
}
MOTION
Frames:	4
Frame Time:	0.00833333
-178.573 84.0179 -2.16018 0.0 0.0 0.0 -1.65551 -0.00357564 -0.0452722 -0.457098 0.000154999 -0.0791636 -4.02431e-14 7.95139e-16 -9.93924e-17 -1.2065e-13 9.54166e-15 -3.02836e-16 -0.0 0.0 0.0 -0.0 0.0 0.0 -1.98808e-14 -5.97907e-17 9.93923e-17 -4.20763e-13 -1.11816e-15 -1.78906e-15 -7.26021e-12 2.13356e-12 2.8625e-14 -8.31532e-11 -2.40142e-12 -3.53042e-13 -1.96133e-10 -5.82732e-13 -6.61555e-13 -3.38725e-10 -1.01142e-12 -1.145e-12 -1.96129e-10 -5.84029e-13 -6.71097e-13 7.73091 5.47488 0.417314 -1.96133e-10 -5.83135e-13 -6.64736e-13 2.90554 0.965183 0.102902 -1.96133e-10 -5.82737e-13 -6.64736e-13 10.2786 0.731801 0.0259123 -1.96138e-10 -5.80054e-13 -6.55194e-13 2.22167 -0.733487 -0.20892 -2.00763e-14 -5.74612e-17 -1.98785e-16 -4.23525e-13 -9.38015e-16 -3.37934e-15 -7.26856e-12 -2.21267e-12 6.67917e-14 -8.31208e-11 1.95952e-12 -3.72125e-13 -1.9608e-10 -5.53751e-13 -6.52014e-13 -3.38608e-10 -9.54166e-13 -1.12035e-12 -1.96085e-10 -5.54609e-13 -6.42472e-13 -7.73091 5.47488 -0.417314 -1.96079e-10 -5.5451e-13 -6.58375e-13 -2.90554 0.965183 -0.102902 -1.96085e-10 -5.53516e-13 -6.52809e-13 -10.2786 0.731801 -0.0259123 -1.96073e-10 -5.50634e-13 -6.61555e-13 -2.22167 -0.733487 0.20892 -2.03217e-16 0.0 -3.88251e-19 -0.803495 -1.9234 -0.00371601 -0.00881814 -2.07862 -0.0725684 -0.451975 3.99778 0.131423 2.03217e-16 0.0 3.88251e-19 -1.71767 -6.77987 0.164474 -0.00322795 6.71843 -0.0840696 0.482196 0.0572937 -0.0559068
-171.634 83.9621 -6.6679 -53.4741 85.4053 -58.3388 -0.604459 3.38591 -0.930917 0.311998 -0.710134 -0.282964 0.0968857 2.22235 0.620024 -1.03053 -7.39646 0.994428 -0.0 0.0 0.0 -0.0 0.0 0.0 -2.56618e-15 -3.11002e-13 4.18807e-15 19.4573 9.86589 -1.04169 -6.41464 -3.5434 9.24224 0.0100705 2.22646 0.312056 -4.01625e-10 -1.27647e-10 1.99385e-10 -6.9145e-10 -2.21527e-10 3.48982e-10 -4.01621e-10 -1.27648e-10 1.99376e-10 7.73091 5.47488 0.417314 -4.01625e-10 -1.27647e-10 1.99382e-10 2.90554 0.965183 0.102902 -4.01622e-10 -1.27648e-10 1.99383e-10 10.2786 0.731801 0.0259123 -4.01632e-10 -1.27646e-10 1.99391e-10 2.22167 -0.733487 -0.20892 -2.7282e-15 -3.11e-13 3.88873e-15 -21.9445 6.18412 2.14881 6.58534 -3.68489 -9.42267 -0.000924895 0.674607 -0.0947861 -4.71959e-10 1.67404e-10 -4.56873e-10 -8.18318e-10 2.88735e-10 -7.91315e-10 -4.71965e-10 1.67404e-10 -4.56862e-10 -7.73091 5.47488 -0.417314 -4.71958e-10 1.67404e-10 -4.56879e-10 -2.90554 0.965183 -0.102902 -4.71965e-10 1.67404e-10 -4.56874e-10 -10.2786 0.731801 -0.0259123 -4.71952e-10 1.67406e-10 -4.56882e-10 -2.22167 -0.733487 0.20892 -2.03217e-16 0.0 -3.88251e-19 0.0154398 -0.875059 2.19713 0.00314495 2.00726 0.0359523 -1.01313 0.0121162 -5.5323 2.03217e-16 0.0 3.88251e-19 0.421306 -6.15108 -2.29465 -0.0161197 11.2999 -0.18032 1.15231 -3.72233 4.80327
-171.635 83.9632 -6.6593 -54.0358 85.3757 -58.8954 0.622093 6.96621 -1.87785 1.11973 -1.4609 -0.49845 0.146508 4.57054 1.2786 -1.83128 -15.2085 2.10258 -0.0 0.0 0.0 -0.0 0.0 0.0 1.55506e-14 -6.39675e-13 8.4763e-15 40.4395 20.2883 -2.25309 -11.9705 -6.98407 19.1269 -0.00572395 4.57674 0.643065 -6.14707e-10 -2.63195e-10 4.21519e-10 -1.05703e-09 -4.56726e-10 7.37561e-10 -6.14703e-10 -2.63196e-10 4.21511e-10 7.73091 5.47488 0.417314 -6.14706e-10 -2.63196e-10 4.21515e-10 2.90554 0.965183 0.102902 -6.14702e-10 -2.63197e-10 4.21517e-10 10.2786 0.731801 0.0259123 -6.14715e-10 -2.63195e-10 4.21525e-10 2.22167 -0.733487 -0.20892 1.54235e-14 -6.39674e-13 8.17502e-15 -45.6586 12.6921 4.50487 12.2453 -7.24758 -19.5054 0.000524814 1.38749 -0.194994 -7.70071e-10 3.53861e-10 -9.45757e-10 -1.3367e-09 6.10368e-10 -1.63808e-09 -7.70079e-10 3.53862e-10 -9.45743e-10 -7.73091 5.47488 -0.417314 -7.70071e-10 3.53861e-10 -9.45761e-10 -2.90554 0.965183 -0.102902 -7.70078e-10 3.53862e-10 -9.45757e-10 -10.2786 0.731801 -0.0259123 -7.70064e-10 3.53862e-10 -9.45764e-10 -2.22167 -0.733487 0.20892 -2.03217e-16 0.0 -3.88251e-19 0.793581 0.233567 4.52258 -0.00108487 6.3232 0.151397 -2.45806 -4.11554 -11.5468 2.03217e-16 0.0 3.88251e-19 2.74171 -5.47768 -4.88771 -0.0122625 16.1458 -0.286875 2.5604 -7.62885 10.0098
-171.632 83.9634 -6.66565 -54.1419 85.4032 -59.0106 1.81617 10.1548 -2.74029 1.83502 -2.13058 -0.690977 0.145555 6.66391 1.87132 -2.26952 -22.1615 3.19469 -0.0 0.0 0.0 -0.0 0.0 0.0 3.2063e-14 -9.32886e-13 1.23654e-14 59.5841 29.5555 -3.53997 -15.9241 -9.52548 28.0941 -0.0429657 6.67859 0.941853 -8.1261e-10 -3.81775e-10 5.99478e-10 -1.3969e-09 -6.62558e-10 1.04924e-09 -8.12604e-10 -3.81776e-10 5.99471e-10 7.73091 5.47488 0.417314 -8.12608e-10 -3.81776e-10 5.99475e-10 2.90554 0.965183 0.102902 -8.12602e-10 -3.81778e-10 5.99477e-10 10.2786 0.731801 0.0259123 -8.12618e-10 -3.81776e-10 5.99485e-10 2.22167 -0.733487 -0.20892 3.19679e-14 -9.32886e-13 1.20637e-14 -67.2859 18.4451 6.75756 16.2396 -9.86033 -28.6709 0.00392498 2.0238 -0.284516 -1.02372e-09 5.03318e-10 -1.36932e-09 -1.77774e-09 8.68114e-10 -2.37171e-09 -1.02373e-09 5.0332e-10 -1.3693e-09 -7.73091 5.47488 -0.417314 -1.02372e-09 5.0332e-10 -1.36932e-09 -2.90554 0.965183 -0.102902 -1.02372e-09 5.03319e-10 -1.36932e-09 -10.2786 0.731801 -0.0259123 -1.02371e-09 5.03319e-10 -1.36932e-09 -2.22167 -0.733487 0.20892 -2.03217e-16 0.0 -3.88251e-19 1.41218 1.21161 6.59953 -0.0198113 10.1789 0.256875 -4.47925 -7.61492 -17.0137 2.03217e-16 0.0 3.88251e-19 4.86193 -4.86966 -7.19707 0.00740311 20.4625 -0.38797 4.42283 -10.9561 14.7662
